<mxfile host="Electron" agent="Mozilla/5.0 (Macintosh; Intel Mac OS X 10_15_7) AppleWebKit/537.36 (KHTML, like Gecko) draw.io/27.0.9 Chrome/134.0.6998.205 Electron/35.4.0 Safari/537.36" version="27.0.9">
  <diagram name="Page-1" id="yJ1K71cI2XBVtuIyxPF1">
    <mxGraphModel dx="1212" dy="1134" grid="1" gridSize="10" guides="1" tooltips="1" connect="1" arrows="1" fold="1" page="1" pageScale="1" pageWidth="850" pageHeight="1100" math="0" shadow="0">
      <root>
        <mxCell id="0" />
        <mxCell id="1" parent="0" />
        <mxCell id="aczhfo-M_OytWeX1VCap-3" value="v" style="edgeStyle=orthogonalEdgeStyle;rounded=0;orthogonalLoop=1;jettySize=auto;html=1;entryX=0;entryY=0.5;entryDx=0;entryDy=0;" edge="1" parent="1" source="aczhfo-M_OytWeX1VCap-1" target="aczhfo-M_OytWeX1VCap-2">
          <mxGeometry relative="1" as="geometry" />
        </mxCell>
        <mxCell id="aczhfo-M_OytWeX1VCap-1" value="Object" style="html=1;whiteSpace=wrap;" vertex="1" parent="1">
          <mxGeometry x="80" y="165" width="110" height="50" as="geometry" />
        </mxCell>
        <mxCell id="aczhfo-M_OytWeX1VCap-2" value="&lt;h1 style=&quot;margin-top: 0px;&quot;&gt;Heading&lt;/h1&gt;&lt;p&gt;Lorem ipsum dolor sit amet, consectetur adipisicing elit, sed do eiusmod tempor incididunt ut labore et dolore magna aliqua.&lt;/p&gt;" style="text;html=1;whiteSpace=wrap;overflow=hidden;rounded=0;" vertex="1" parent="1">
          <mxGeometry x="300" y="130" width="180" height="120" as="geometry" />
        </mxCell>
        <mxCell id="aczhfo-M_OytWeX1VCap-5" value="v" style="edgeStyle=orthogonalEdgeStyle;rounded=0;orthogonalLoop=1;jettySize=auto;html=1;entryX=0;entryY=0.5;entryDx=0;entryDy=0;" edge="1" parent="1" source="aczhfo-M_OytWeX1VCap-6" target="aczhfo-M_OytWeX1VCap-7">
          <mxGeometry relative="1" as="geometry" />
        </mxCell>
        <mxCell id="aczhfo-M_OytWeX1VCap-6" value="Object" style="html=1;whiteSpace=wrap;" vertex="1" parent="1">
          <mxGeometry x="70" y="325" width="110" height="50" as="geometry" />
        </mxCell>
        <mxCell id="aczhfo-M_OytWeX1VCap-7" value="&lt;h1 style=&quot;margin-top: 0px;&quot;&gt;Heading&lt;/h1&gt;&lt;p&gt;Lorem ipsum dolor sit amet, consectetur adipisicing elit, sed do eiusmod tempor incididunt ut labore et dolore magna aliqua.&lt;/p&gt;" style="text;html=1;whiteSpace=wrap;overflow=hidden;rounded=0;" vertex="1" parent="1">
          <mxGeometry x="290" y="290" width="180" height="120" as="geometry" />
        </mxCell>
        <mxCell id="aczhfo-M_OytWeX1VCap-8" value="v" style="edgeStyle=orthogonalEdgeStyle;rounded=0;orthogonalLoop=1;jettySize=auto;html=1;entryX=0;entryY=0.5;entryDx=0;entryDy=0;" edge="1" parent="1" source="aczhfo-M_OytWeX1VCap-9" target="aczhfo-M_OytWeX1VCap-10">
          <mxGeometry relative="1" as="geometry" />
        </mxCell>
        <mxCell id="aczhfo-M_OytWeX1VCap-9" value="Object" style="html=1;whiteSpace=wrap;" vertex="1" parent="1">
          <mxGeometry x="70" y="495" width="110" height="50" as="geometry" />
        </mxCell>
        <mxCell id="aczhfo-M_OytWeX1VCap-10" value="&lt;h1 style=&quot;margin-top: 0px;&quot;&gt;Heading&lt;/h1&gt;&lt;p&gt;Lorem ipsum dolor sit amet, consectetur adipisicing elit, sed do eiusmod tempor incididunt ut labore et dolore magna aliqua.&lt;/p&gt;" style="text;html=1;whiteSpace=wrap;overflow=hidden;rounded=0;" vertex="1" parent="1">
          <mxGeometry x="290" y="460" width="180" height="120" as="geometry" />
        </mxCell>
      </root>
    </mxGraphModel>
  </diagram>
</mxfile>
